<?xml version="1.0" standalone="no"?>
<!DOCTYPE svg PUBLIC "-//W3C//DTD SVG 20010904//EN"
 "http://www.w3.org/TR/2001/REC-SVG-20010904/DTD/svg10.dtd">
<svg version="1.0" xmlns="http://www.w3.org/2000/svg"
 width="16.000000pt" height="16.000000pt" viewBox="0 0 16.000000 16.000000"
 preserveAspectRatio="xMidYMid meet">
<metadata>
Created by potrace 1.11, written by Peter Selinger 2001-2013
</metadata>
<g transform="translate(0.000000,16.000000) scale(0.002500,-0.002500)"
fill="#000000" stroke="none">
<path d="M2990 5049 c-236 -82 -707 -251 -719 -258 -11 -7 -11 -24 -2 -92 34
-246 -60 -481 -280 -697 -85 -84 -224 -189 -332 -250 -73 -41 -84 -51 -65 -55
16 -3 13 -5 -12 -6 -81 -3 -79 0 -75 -119 5 -118 12 -254 20 -347 3 -33 7
-105 10 -160 10 -189 17 -260 29 -267 6 -4 29 -8 51 -8 142 -1 312 -85 447
-222 150 -152 287 -424 330 -655 6 -35 16 -63 21 -63 5 0 7 -19 5 -42 l-3 -42
130 -28 c72 -16 222 -49 335 -75 170 -38 281 -60 379 -76 7 -1 17 5 21 13 4 8
23 49 42 90 64 136 164 235 321 320 200 108 496 160 746 131 104 -12 105 -12
122 10 27 36 260 466 362 668 l42 83 -40 31 c-22 17 -66 58 -98 90 -69 71
-136 201 -167 327 -28 112 -35 328 -14 455 13 81 59 268 79 320 6 17 5 17 -9
-2 -10 -13 -21 -23 -26 -23 -18 0 4 39 47 85 l46 47 -74 70 c-133 126 -532
513 -547 529 -13 15 -23 13 -120 -18 -182 -57 -346 -72 -476 -43 -98 22 -201
86 -321 198 -34 31 -74 69 -90 84 l-30 27 -85 -30z m160 -1323 c41 -8 111 -18
155 -22 44 -4 87 -8 95 -10 8 -1 55 -3 103 -3 80 -1 87 -2 79 -18 -5 -10 -8
-27 -7 -38 2 -11 6 -63 9 -115 3 -52 10 -122 16 -155 16 -80 57 -252 64 -264
6 -9 -48 -33 -139 -61 -63 -19 -295 -133 -354 -173 l-54 -36 -48 70 c-88 128
-190 252 -247 304 -13 11 -41 37 -63 58 l-39 38 58 72 c72 88 203 280 221 325
7 17 17 32 22 32 5 0 9 9 9 20 0 19 2 19 23 6 12 -8 56 -21 97 -30z"/>
</g>
</svg>
